HIERARCHY
ROOT Hips
{
	OFFSET 0.000000 0.000000 0.000000
	CHANNELS 6 Xposition Yposition Zposition Xrotation Yrotation Zrotation
	JOINT LeftUpLeg_virtual
	{
		OFFSET 0.000000 0.000000 0.000000
		CHANNELS 3 Xrotation Yrotation Zrotation
		JOINT LeftUpLeg
		{
			OFFSET 11.394100 -6.187798 -0.413800
			CHANNELS 3 Xrotation Yrotation Zrotation
			JOINT LeftLeg
			{
				OFFSET 0.430247 -32.302673 3.732800
				CHANNELS 3 Xrotation Yrotation Zrotation
				JOINT LeftFoot
				{
					OFFSET -0.430247 -48.264931 -6.423300
					CHANNELS 3 Xrotation Yrotation Zrotation
					JOINT LeftToeBase
					{
						OFFSET 4.230900 -16.068199 23.438400
						CHANNELS 3 Xrotation Yrotation Zrotation
						JOINT LeftToe_End
						{
							OFFSET 4.510700 0.695400 19.974600
							CHANNELS 3 Xrotation Yrotation Zrotation
							End Site
							{
								OFFSET 0 0 0
							}
						}
					}
				}
			}
		}
	}
	JOINT RightUpLeg_virtual
	{
		OFFSET 0.000000 0.000000 0.000000
		CHANNELS 3 Xrotation Yrotation Zrotation
		JOINT RightUpLeg
		{
			OFFSET -11.333700 -6.187798 -0.413800
			CHANNELS 3 Xrotation Yrotation Zrotation
			JOINT RightLeg
			{
				OFFSET -0.430392 -32.302628 3.733000
				CHANNELS 3 Xrotation Yrotation Zrotation
				JOINT RightFoot
				{
					OFFSET 0.430392 -48.264973 -6.423500
					CHANNELS 3 Xrotation Yrotation Zrotation
					JOINT RightToeBase
					{
						OFFSET -4.230900 -16.068199 23.438400
						CHANNELS 3 Xrotation Yrotation Zrotation
						JOINT RightToe_End
						{
							OFFSET -4.510700 0.695400 19.974600
							CHANNELS 3 Xrotation Yrotation Zrotation
							End Site
							{
								OFFSET 0 0 0
							}
						}
					}
				}
			}
		}
	}
	JOINT Spine_virtual
	{
		OFFSET 0.000000 0.000000 0.000000
		CHANNELS 3 Xrotation Yrotation Zrotation
		JOINT Spine
		{
			OFFSET -0.002400 12.777504 0.315300
			CHANNELS 3 Xrotation Yrotation Zrotation
			JOINT Spine1
			{
				OFFSET -0.002067 5.816869 0.032633
				CHANNELS 3 Xrotation Yrotation Zrotation
				JOINT Spine1_split
				{
					OFFSET -0.002067 5.816869 0.032633
					CHANNELS 3 Xrotation Yrotation Zrotation
					JOINT Spine2
					{
						OFFSET -0.002067 5.816869 0.032633
						CHANNELS 3 Xrotation Yrotation Zrotation
						JOINT Neck_virtual
						{
							OFFSET 0.000000 0.000000 0.000000
							CHANNELS 3 Xrotation Yrotation Zrotation
							JOINT Neck
							{
								OFFSET -0.003700 21.199493 -0.826900
								CHANNELS 3 Xrotation Yrotation Zrotation
								JOINT Head
								{
									OFFSET 0.000000 20.442200 4.834800
									CHANNELS 3 Xrotation Yrotation Zrotation
									JOINT HeadTop_End
									{
										OFFSET 0.000000 34.668396 4.968400
										CHANNELS 3 Xrotation Yrotation Zrotation
										End Site
										{
											OFFSET 0 0 0
										}
									}
								}
							}
						}
						JOINT LeftShoulder_virtual
						{
							OFFSET 0.000000 0.000000 0.000000
							CHANNELS 3 Xrotation Yrotation Zrotation
							JOINT LeftShoulder
							{
								OFFSET 3.288150 8.794197 -1.372250
								CHANNELS 3 Xrotation Yrotation Zrotation
								JOINT LeftShoulder_split
								{
									OFFSET 3.288150 8.794197 -1.372250
									CHANNELS 3 Xrotation Yrotation Zrotation
									JOINT LeftArm
									{
										OFFSET 11.953299 -2.279007 -0.146200
										CHANNELS 3 Xrotation Yrotation Zrotation
										JOINT LeftForeArm
										{
											OFFSET 18.448900 0.000000 0.000000
											CHANNELS 3 Xrotation Yrotation Zrotation
											JOINT LeftHand
											{
												OFFSET 29.527798 0.000000 0.000000
												CHANNELS 3 Xrotation Yrotation Zrotation
												End Site
												{
													OFFSET 0 0 0
												}
											}
										}
									}
								}
							}
						}
						JOINT RightShoulder_virtual
						{
							OFFSET 0.000000 0.000000 0.000000
							CHANNELS 3 Xrotation Yrotation Zrotation
							JOINT RightShoulder
							{
								OFFSET -3.249400 8.794197 -1.372250
								CHANNELS 3 Xrotation Yrotation Zrotation
								JOINT RightShoulder_split
								{
									OFFSET -3.249400 8.794197 -1.372250
									CHANNELS 3 Xrotation Yrotation Zrotation
									JOINT RightArm
									{
										OFFSET -11.953299 -2.279007 -0.146200
										CHANNELS 3 Xrotation Yrotation Zrotation
										JOINT RightForeArm
										{
											OFFSET -18.448900 0.000000 0.000000
											CHANNELS 3 Xrotation Yrotation Zrotation
											JOINT RightHand
											{
												OFFSET -29.527802 0.000000 0.000000
												CHANNELS 3 Xrotation Yrotation Zrotation
												End Site
												{
													OFFSET 0 0 0
												}
											}
										}
									}
								}
							}
						}
					}
				}
			}
		}
	}
}
MOTION
Frames: 5
Frame Time: 0.03333333
0.444809 85.121864 5.155319 0.000000 0.000000 0.000000 -2.035324 -45.876666 3.294382 -38.112633 10.080336 19.297122 54.907361 -7.726096 -1.182491 -21.018493 -10.182983 -10.939190 -2.119007 -0.933143 0.832699 0.000000 0.000000 0.000000 -3.342843 -44.264291 3.764150 -26.861590 -9.564291 -32.011533 54.893291 -6.997429 -8.489194 -16.989991 -7.255947 25.439835 -4.680796 -0.075496 0.946917 0.000000 0.000000 0.000000 -1.385326 -45.941082 4.385821 9.379492 12.132331 -2.920691 0.514543 3.931061 -1.705220 0.432023 -1.868685 1.289195 0.000000 0.000000 0.000000 1.921748 4.078175 -1.753859 -8.593659 11.696024 3.969793 6.364877 16.994673 0.885997 0.000000 0.000000 0.000000 1.610514 4.120437 -1.354754 0.689749 0.199140 -4.411979 -0.467457 -3.876709 1.275504 6.042208 1.342110 -39.035187 178.372753 -49.324095 178.935575 0.000000 0.000000 0.000000 1.383752 3.740601 -1.593210 1.439092 13.093508 -4.715653 -7.014562 -1.179097 2.637947 -59.885227 20.326349 64.714547 -165.665528 79.145507 164.402339 0.000000 0.000000 0.000000 
1.021263 85.198997 5.096004 0.000000 0.000000 0.000000 -1.909090 -51.095061 2.804757 -36.329390 9.930298 19.766088 54.757053 -6.541276 -2.096414 -23.352156 -6.676457 -10.100625 -2.481993 -0.977242 1.322846 0.000000 0.000000 0.000000 -3.033939 -48.728509 3.426997 -29.306696 -5.792652 -30.773892 55.507052 -5.438516 -9.365123 -16.829982 -5.317661 25.951667 -4.563114 0.191561 0.361026 0.000000 0.000000 0.000000 -0.920730 -49.809001 4.321079 9.599650 11.583681 -2.101107 0.851888 3.803690 -1.654940 0.470261 -1.684189 1.202643 0.000000 0.000000 0.000000 2.274300 3.988416 -1.667901 -8.803324 12.780345 3.666605 5.456254 20.094435 -0.864997 0.000000 0.000000 0.000000 1.682046 4.035284 -1.241367 0.913002 0.685177 -2.430947 0.267394 -4.475293 0.365283 1.971579 5.707099 -34.036557 178.797960 -53.818776 179.216746 0.000000 0.000000 0.000000 1.439667 3.637166 -1.464734 1.182034 10.568487 -2.775249 -6.181399 -1.335041 2.975881 -60.867224 23.105779 69.916446 -172.085646 74.546249 170.691618 0.000000 0.000000 0.000000 
1.412345 85.112656 4.996620 0.000000 0.000000 0.000000 -1.681614 -56.358469 2.023502 -35.031692 8.904673 20.359674 55.442613 -5.393590 -2.339471 -25.432057 -3.258537 -9.217689 -2.587501 -0.952207 1.406971 0.000000 0.000000 0.000000 -2.711460 -52.989591 2.677290 -31.302962 -3.105437 -28.916333 55.430776 -4.145488 -10.060252 -17.068419 -3.652173 26.060435 -4.454635 0.542132 -0.125536 0.000000 0.000000 0.000000 -0.210131 -53.406345 3.849702 9.749584 10.498598 -1.508167 1.194843 3.220368 -1.602403 0.797067 -1.496877 1.082791 0.000000 0.000000 0.000000 2.588523 3.333352 -1.535016 -8.962554 14.211973 3.390683 4.883572 23.345348 -2.794184 0.000000 0.000000 0.000000 1.831560 3.382722 -1.166926 1.054792 1.035646 -0.091461 0.242616 -3.157722 -0.543426 -6.711416 6.084107 -26.518559 178.759287 -66.018443 179.228836 0.000000 0.000000 0.000000 1.575687 3.029834 -1.440226 0.938752 8.946735 -1.183502 -5.513032 -2.055233 2.962765 -61.300306 25.967539 74.274865 -176.008552 70.443976 174.346480 0.000000 0.000000 0.000000 
1.571923 84.996689 4.674484 0.000000 0.000000 0.000000 -1.586096 -60.261202 0.966405 -34.571641 7.147729 20.926571 56.713277 -4.682479 -1.850448 -26.828706 -0.541412 -8.813026 -2.372312 -0.858226 1.213105 0.000000 0.000000 0.000000 -2.647036 -56.190088 1.493151 -32.285184 -1.996836 -26.839387 54.640181 -3.537898 -10.445350 -17.782782 -2.608351 25.478766 -4.264757 0.888864 -0.208246 0.000000 0.000000 0.000000 0.404786 -56.033772 2.965523 9.808682 8.862393 -1.129688 1.429628 2.177977 -1.589760 1.186617 -1.174646 0.795436 0.000000 0.000000 0.000000 2.719329 2.127517 -1.480671 -8.896598 15.789968 3.229576 5.104196 26.397028 -4.770538 0.000000 0.000000 0.000000 2.210710 2.155368 -1.222635 1.154484 1.112816 2.061917 -0.765726 -0.450220 -1.274110 -17.561461 1.564105 -19.146041 172.980087 -85.722959 173.527062 0.000000 0.000000 0.000000 1.769385 1.900699 -1.537714 0.747908 8.233834 0.044824 -5.516960 -2.787145 2.477815 -59.668608 28.920343 77.360205 -178.514739 66.544566 176.473824 0.000000 0.000000 0.000000 
1.525641 84.909317 4.337929 0.000000 0.000000 0.000000 -1.688241 -61.752977 -0.251603 -34.957458 5.239206 21.192318 58.076846 -4.517626 -0.783322 -27.147622 1.042929 -9.158672 -2.287562 -0.681811 1.010140 0.000000 0.000000 0.000000 -2.854008 -57.659064 0.117724 -32.100212 -2.448914 -25.088791 53.508088 -3.720283 -10.560086 -18.629694 -2.255819 24.474144 -4.338061 1.160585 0.169887 0.000000 0.000000 0.000000 0.867310 -57.361349 1.920471 9.724087 6.929440 -0.982193 1.536714 0.924830 -1.672105 1.300442 -0.916587 0.267793 0.000000 0.000000 0.000000 2.624904 0.693335 -1.580105 -8.708528 17.140423 3.206004 5.949466 28.735248 -6.408548 0.000000 0.000000 0.000000 2.761631 0.636765 -1.379114 1.216259 1.089931 3.506991 -2.406299 2.265530 -1.539825 -26.609994 -5.862654 -15.001107 2.775068 -72.583539 3.182949 0.000000 0.000000 0.000000 2.043702 0.544682 -1.751474 0.678004 8.560291 0.844147 -6.220408 -2.871021 2.180020 -54.935273 31.967321 78.164091 -179.628238 62.298237 177.231784 0.000000 0.000000 0.000000 
